<?xml version="1.0" encoding="iso-8859-1"?>
<!-- Uploaded to: SVG Repo, www.svgrepo.com, Generator: SVG Repo Mixer Tools -->
<svg height="800px" width="800px" version="1.1" id="Layer_1" xmlns="http://www.w3.org/2000/svg" xmlns:xlink="http://www.w3.org/1999/xlink" 
	 viewBox="0 0 512 512" xml:space="preserve">
<path style="fill:#FFEE5E;" d="M110.978,449.615V299.514c0-23.934,19.649-43.514,43.666-43.514h202.713
	c24.016,0,43.667,19.58,43.667,43.514v150.101H110.978L110.978,449.615z"/>
<path style="fill:#F4BB19;" d="M401.025,299.514v150.101H110.978V299.514c0-23.934,19.649-43.514,43.666-43.514h101.359v83.465
	c0,12.615,10.351,22.93,23.007,22.93c12.659,0,23.012-10.316,23.012-22.93v-37.566c0,12.616,10.356,22.931,23.012,22.931
	c12.657,0,23.012-10.315,23.012-22.931V256h9.311C381.373,256,401.025,275.58,401.025,299.514z"/>
<path style="fill:#FF4328;" d="M418.128,62.385h18.967h33.921c17.806,0,32.38,14.52,32.38,32.269l0,0
	c0,17.75-14.574,32.27-32.38,32.27h-33.921h-18.967h-33.919c-17.811,0-32.382-14.52-32.382-32.27l0,0
	c0-17.749,14.57-32.269,32.382-32.269H418.128L418.128,62.385z"/>
<path style="fill:#9E9E9E;" d="M279.361,86.041v16.579c0,27.021-22.554,53.56-49.3,49.128L12.204,115.636
	c-2.077-0.344-3.599-2.139-3.599-4.244v-25.35H279.361z"/>
<path style="fill:#7F7F7F;" d="M8.605,86.041h78.688l-40.3,35.361l-34.789-5.766c-2.077-0.344-3.599-2.139-3.599-4.244V86.041z
	 M250.811,86.041L184.529,144.2l45.531,7.549c26.746,4.432,49.3-22.107,49.3-49.128v-16.58H250.811z"/>
<path style="fill:#C13421;" d="M503.395,94.654L503.395,94.654c0,17.75-14.574,32.27-32.38,32.27h-33.921h-18.967h-33.919
	c-17.811,0-32.382-14.52-32.382-32.27l0,0H503.395z"/>
<path d="M452.813,436.707h-43.184V299.514c0-28.739-23.449-52.119-52.271-52.119h-9.311h-92.043H154.645
	c-28.823,0-52.272,23.38-52.272,52.119v137.193H59.19c-5.941,0-10.756,4.816-10.756,10.756c0,5.94,4.816,10.756,10.756,10.756
	h51.788h290.046h51.789c5.941,0,10.756-4.817,10.756-10.756C463.57,441.523,458.754,436.707,452.813,436.707z M264.609,264.605
	h74.833v37.293c0,7.901-6.463,14.326-14.408,14.326c-7.944,0-14.407-6.427-14.407-14.326c0-4.752-3.853-8.605-8.605-8.605
	s-8.605,3.853-8.605,8.605v37.566c0,7.899-6.463,14.325-14.408,14.325c-7.941,0-14.402-6.427-14.402-14.325v-74.86H264.609z
	 M119.583,299.514c0-19.249,15.729-34.909,35.062-34.909h92.754v74.86c0,17.389,14.181,31.535,31.612,31.535
	c17.434,0,31.618-14.147,31.618-31.535v-9.498c4.324,2.217,9.22,3.469,14.407,3.469c17.434,0,31.618-14.147,31.618-31.536v-37.294
	h0.706c19.333,0,35.061,15.66,35.061,34.909v137.193H119.583V299.514z M471.015,53.78h-86.807c-19.637,0-36.085,13.846-40.063,32.26
	h-56.18c0-4.752-3.853-8.605-8.605-8.605H8.605C3.853,77.436,0,81.289,0,86.041v25.349c0,6.341,4.54,11.695,10.796,12.734
	l217.858,36.112c2.415,0.4,4.867,0.603,7.288,0.603c27.524,0,51.68-26.838,52.008-57.589h56.192
	c3.971,18.423,20.424,32.279,40.066,32.279h86.807c22.599,0,40.985-18.336,40.985-40.875C512,72.117,493.614,53.78,471.015,53.78z
	 M270.757,102.619c0,21.463-16.593,41.011-34.813,41.011c-1.481,0-2.986-0.125-4.475-0.372L17.21,107.743V94.646h253.547V102.619z
	 M471.015,118.319h-86.807c-13.11,0-23.776-10.615-23.776-23.665c0-13.048,10.666-23.664,23.776-23.664h86.807
	c13.11,0,23.775,10.615,23.775,23.664C494.79,107.704,484.125,118.319,471.015,118.319z"/>
</svg>