<svg width="210" height="210" viewBox="0 0 210 210" fill="none" xmlns="http://www.w3.org/2000/svg">
<circle cx="105" cy="105" r="105" fill="#242627"/>
<path d="M84.7133 67.8983C82.0358 67.5083 79.8499 67.9365 78.4034 69.3022C73.2687 74.1503 79.3937 88.9761 92.0839 102.417C101.163 112.033 111.144 118.335 117.969 119.367M124.638 105.743C126.698 111.233 126.767 115.701 124.359 117.974C122.898 119.354 120.683 119.777 117.969 119.367M117.969 119.367L103.77 124.892M64.1622 126.668L60.7993 141.614L80.4163 133.98M80.4163 133.98C75.5587 131.107 66.4789 121.436 69.0198 105.743M80.4163 133.98L103.77 124.892M103.77 124.892C94.2416 121.062 74.7367 108.059 72.9432 86.6863M106.759 102.417C113.609 100.723 129.926 98.7554 140.388 104.435M92.0839 92.1042C95.6678 84.7557 101.603 67.3682 96.6703 56.6069M98.5386 93.412C104.268 88.7413 115.802 79.0636 116.1 77.7185M110.122 94.9066C120.148 89.4263 141.135 78.4658 144.872 78.4658M131.981 116.766C138.769 116.579 151.523 120.054 148.235 135.448M145.806 83.5102L145.806 87.6204M149.169 81.8287L152.532 84.6312M150.664 78.4658L155.334 78.4658M149.169 74.7293L152.532 71.7401M145.806 73.2347L145.806 69.3022M142.256 74.7293L139.454 71.7401M139.454 54.7388L139.454 59.0358M141.509 53.0574L145.806 53.0574M139.454 51.0023L139.454 46.7053M137.399 53.0574L133.102 53.0574" stroke="#F07900" stroke-width="2"/>
<path d="M68.2057 52.2594C68.4618 51.4713 69.5767 51.4713 69.8328 52.2594C70.2151 53.4359 71.3114 54.2325 72.5485 54.2325C73.3771 54.2325 73.7217 55.2929 73.0513 55.7799C72.0505 56.507 71.6317 57.7959 72.014 58.9724C72.27 59.7605 71.368 60.4158 70.6976 59.9288C69.6968 59.2016 68.3417 59.2016 67.3409 59.9288C66.6705 60.4158 65.7685 59.7605 66.0245 58.9724C66.4068 57.7959 65.988 56.507 64.9873 55.7799C64.3169 55.2929 64.6614 54.2325 65.4901 54.2325C66.7271 54.2325 67.8235 53.4359 68.2057 52.2594Z" stroke="#F07900" stroke-width="2"/>
<rect x="120.463" y="65.8281" width="7.34141" height="7.34141" stroke="#F07900" stroke-width="2"/>
<circle cx="109" cy="63.7065" r="3.48388" stroke="#F07900" stroke-width="2"/>
<circle cx="94.5" cy="43.5" r="6.5" stroke="#F07900" stroke-width="2"/>
<circle cx="147.487" cy="108.544" r="3.48388" stroke="#F07900" stroke-width="2"/>
</svg>
