<svg width="210" height="210" viewBox="0 0 210 210" fill="none" xmlns="http://www.w3.org/2000/svg">
<circle cx="105" cy="105" r="105" fill="#242627"/>
<path d="M96.1601 101.02H67.3606C66.2741 101.02 65.3933 100.139 65.3933 99.0523V99.0523C65.3933 93.6197 69.7973 89.2157 75.2299 89.2157H83.249M96.1601 101.02V108.275C96.1601 110.484 97.9509 112.275 100.16 112.275H105.363M96.1601 101.02H114.565V108.275C114.565 110.484 112.774 112.275 110.565 112.275H105.363M105.363 112.275V143.02M105.363 143.02L95.5541 151.131C94.8319 151.729 95.2542 152.902 96.1913 152.902H113.63C114.544 152.902 114.979 151.778 114.304 151.163L105.363 143.02ZM49.1858 125.725V125.725C41.9035 125.725 36 119.822 36 112.54V77.5526C36 74.7459 38.2753 72.4706 41.082 72.4706V72.4706C43.8887 72.4706 46.164 74.7459 46.164 77.5526V85.3725M49.1858 125.725L40.1206 154M49.1858 125.725H65.3933M65.3933 125.725H70.0663C72.4921 125.725 74.4585 123.759 74.4585 121.333V121.333C74.4585 118.908 72.4921 116.941 70.0663 116.941H46.164V91.4118M65.3933 125.725L75.832 154M145.332 125.725H139.835C137.409 125.725 135.443 123.759 135.443 121.333V121.333C135.443 118.908 137.409 116.941 139.835 116.941H164.836V77.5526C164.836 74.7459 167.111 72.4706 169.918 72.4706V72.4706C172.725 72.4706 175 74.7459 175 77.5526V112.814C175 119.945 169.22 125.725 162.089 125.725V125.725M145.332 125.725L135.443 154M145.332 125.725H162.089M162.089 125.725L171.429 154M83.249 80.4314H82.3043C80.0952 80.4314 78.3043 78.6405 78.3043 76.4314V72.8235C78.3043 71.719 79.1998 70.8235 80.3043 70.8235H86.1937C87.2982 70.8235 88.1937 71.719 88.1937 72.8235V76.4314C88.1937 78.6405 86.4028 80.4314 84.1937 80.4314H83.249ZM83.249 80.4314V89.2157M83.249 89.2157H100.281M128.026 80.4314H129.245C131.454 80.4314 133.245 78.6405 133.245 76.4314V72.8235C133.245 71.719 132.35 70.8235 131.245 70.8235H124.806C123.702 70.8235 122.806 71.719 122.806 72.8235V76.4314C122.806 78.6405 124.597 80.4314 126.806 80.4314H128.026ZM128.026 80.4314V89.2157M128.026 89.2157H137.418C142.851 89.2157 147.255 93.6197 147.255 99.0523V99.0523C147.255 100.139 146.374 101.02 145.288 101.02H123.081M128.026 89.2157H110.719M105.363 66.4314L100.627 70.5244C100.407 70.7144 100.281 70.9905 100.281 71.281V89.2157M105.363 66.4314L110.353 70.5235C110.585 70.7134 110.719 70.9972 110.719 71.2968V89.2157M105.363 66.4314V56M100.281 89.2157H110.719" stroke="#F07900" stroke-width="2" stroke-linecap="round"/>
</svg>
