<svg width="210" height="210" viewBox="0 0 210 210" fill="none" xmlns="http://www.w3.org/2000/svg">
<circle cx="105" cy="105" r="105" fill="#242627"/>
<path d="M147.394 115.048C145.855 122.729 139.073 128.516 130.939 128.516C124.77 128.516 119.378 125.187 116.462 120.228M147.394 108.418C145.855 100.738 139.073 94.9512 130.939 94.9512C127.399 94.9512 124.115 96.0471 121.408 97.9181" stroke="#F07900" stroke-width="2" stroke-linecap="round"/>
<path d="M83.2853 134.318V132.668C83.2853 127.428 88.1018 123.514 93.2304 124.585V124.585M83.2853 134.318C79.5339 132.34 73.1404 128.51 70.3327 125.433C69.7071 124.747 67.251 124.186 66.5833 124.831V124.831C64.6041 126.742 64.5764 129.904 66.5218 131.85L67.7463 133.074L55.2424 131.758C53.5094 131.576 52 132.935 52 134.677V134.677C52 136.136 53.0711 137.373 54.5147 137.582L67.7463 139.497C65.0851 140.539 60.1946 142.888 58.6771 145.085C58.1784 145.807 58.5036 146.712 59.0354 147.41V147.41C60.4024 149.205 62.9779 149.514 64.8237 148.218C70.4486 144.267 78.8166 139.602 83.2853 141.362M83.2853 134.318V141.362M83.2853 141.362V141.362C83.2853 148.342 88.9437 154 95.9238 154H100.068M100.793 126.164L103.797 126.791L117.886 129.733M100.068 154L100.793 143.641M100.068 154H110.841M110.841 154L111.67 148.199M110.841 154H129.696M129.696 154H148.211C152.782 154 156.636 150.593 157.196 146.056V146.056C157.802 141.152 154.363 136.668 149.469 135.981L144.406 135.271M129.696 154V147.37M144.406 135.271L143.577 147.37M144.406 135.271L117.886 129.733M117.886 129.733V134.318" stroke="#F07900" stroke-width="2" stroke-linecap="round"/>
<path d="M86.3935 82.106C74.1201 72.0507 62.1633 78.2207 56.3231 89.1504M86.3935 82.106V72.9897M86.3935 82.106C99.013 72.0387 110.759 77.4722 116.917 87.7M53.4454 96.8164C52.9085 99.1112 52.6218 101.483 52.6218 103.861C52.6218 115.286 58.4135 127.247 67.5394 133.197M86.3935 57.6578V72.9897M86.3935 72.9897C86.3935 65.1856 81.4624 51.1935 61.7381 57.6578C63.6028 63.8734 70.8129 75.766 84.736 73.6112M145.442 135.353C153.509 127.82 165.077 109.037 149.319 92.3862C148.16 91.1612 146.922 89.965 146.176 88.4524C141.031 78.0242 149.745 61.6765 131.768 59.9368C125.759 59.8677 114.322 64.4949 116.643 83.5562L116.917 87.7M116.917 87.7C119.757 92.4172 121.408 98.1542 121.408 103.861C121.408 112.292 116.767 121.465 110.427 128.12" stroke="#F07900" stroke-width="2" stroke-linecap="round"/>
</svg>
