<svg width="1920" height="940" viewBox="0 0 1920 940" fill="none" xmlns="http://www.w3.org/2000/svg">
<g clip-path="url(#clip0_365_921)">
<rect width="1920" height="940" fill="#101519"/>
<path d="M1801.76 825.832C1803.7 822.683 1800.99 819.594 1798.28 817.911C1801.11 809.02 1802.79 796.822 1799.88 788.011C1799.68 787.436 1799.17 786.981 1798.55 787.001C1796.45 787.04 1794.24 787.634 1792.26 788.228C1791.58 788.426 1791.03 789.218 1791.29 789.931C1794.49 798.783 1793.74 807.08 1791.48 815.951C1788.44 815.832 1784.4 816.505 1784.28 819.872C1782.57 820.268 1780.93 820.961 1779.45 822.07C1772.99 826.921 1772.55 838.564 1770.42 845.713C1766.67 858.247 1760.48 869.217 1747.5 873.712C1742.79 875.356 1738 876.227 1733.01 876.267C1730.57 876.287 1728.12 876.247 1725.72 875.693C1723.74 875.237 1721.62 873.653 1719.72 873.475C1715.25 873.039 1715.27 876.425 1717.37 879.415C1722.06 886.069 1729.58 887.455 1737.09 888.425C1756.18 890.9 1772.65 885.475 1784.89 870.366C1791.66 862.01 1797.41 852.762 1800.93 842.564C1802.95 836.802 1804.53 830.683 1801.76 825.832ZM1792.61 818.802C1793.5 818.901 1793.94 818.228 1793.94 817.535C1793.94 817.515 1793.96 817.515 1793.96 817.495C1796.38 808.347 1797.29 799.654 1794.4 790.605C1795.15 790.466 1795.92 790.347 1796.53 790.05C1797.09 789.793 1797.33 789.614 1797.43 789.496C1798.67 791.535 1798.3 796.505 1798.34 798.703C1798.44 804.763 1797.25 812.406 1795.29 818.208C1795.27 818.287 1795.27 818.347 1795.27 818.406C1795.25 818.446 1795.25 818.485 1795.25 818.545C1795.23 818.664 1795.23 818.782 1795.25 818.881C1795.27 818.98 1795.31 819.06 1795.35 819.159C1795.37 819.198 1795.39 819.258 1795.43 819.297C1795.48 819.416 1795.6 819.495 1795.7 819.594C1795.72 819.614 1795.74 819.634 1795.76 819.634C1795.82 819.674 1795.86 819.733 1795.94 819.773C1797.13 820.367 1799.27 821.634 1799.6 823.159C1799.15 822.743 1798.65 822.347 1798.1 821.97C1797.98 821.832 1797.82 821.713 1797.62 821.614C1794.44 820.268 1790.73 819.317 1787.17 819.475C1787.9 818.347 1791.82 818.703 1792.61 818.802ZM1789.88 858.841C1784.53 867.099 1778.2 875.435 1769.66 880.603C1760.14 886.366 1748.48 887.059 1737.68 885.692C1732.59 885.039 1727.53 884.544 1723.33 881.336C1722.44 880.663 1719.03 878.227 1720.38 876.841C1720.38 876.841 1723.98 878.108 1724.14 878.168C1737.56 881.673 1754.83 876.841 1763.64 866.049C1768.55 860.01 1771.31 852.643 1773.47 845.257C1774.79 840.663 1775.48 835.594 1777.27 831.159C1780.95 822.01 1788.14 820.565 1796.2 823.99C1807.21 831.02 1794.85 851.158 1789.88 858.841Z" fill="#333333" fill-opacity="0.3"/>
<path d="M1792.91 834.227C1793.74 843.316 1786.42 853.039 1781.56 860.287C1780.57 861.772 1782.97 863.158 1783.96 861.692C1789.15 853.95 1796.57 844.049 1795.68 834.247C1795.5 832.465 1792.73 832.465 1792.91 834.227Z" fill="#333333" fill-opacity="0.3"/>
<path d="M1793.84 830.584C1795.62 830.584 1795.62 827.812 1793.84 827.812C1792.06 827.812 1792.06 830.584 1793.84 830.584Z" fill="#333333" fill-opacity="0.3"/>
<path d="M1871.73 736.763C1874.49 736.309 1876.87 735.14 1877.46 731.975C1877.96 729.381 1877.04 726.849 1874.99 725.383C1877.74 722.126 1875.43 717.827 1871.74 716.255C1875.14 711.292 1870.13 705.725 1864.54 706.461C1865.16 701.925 1859.43 697.744 1855.31 699.378C1855.14 697.284 1853.67 695.551 1851.45 694.633C1848.36 693.34 1845.08 694.153 1842.37 695.828C1841.83 693.197 1840.01 691.283 1837.2 690.553C1837.17 690.532 1837.12 690.523 1837.07 690.506C1837.04 690.492 1837.02 690.497 1837 690.483C1836.96 690.481 1836.94 690.486 1836.92 690.472C1836.86 690.468 1836.81 690.439 1836.74 690.448C1833.35 690.574 1832.53 692.019 1830.78 694.183C1828.1 692.196 1824.47 693.854 1823.65 696.767C1821.44 695.272 1818.28 694.887 1816.02 696.391C1813.55 698.036 1813.02 701.467 1813.67 704.31C1807.51 703.177 1803.61 709.866 1808.3 714.483C1806.49 715.854 1805.63 718.714 1805.82 720.74C1806.15 724.506 1808.93 726.248 1812.25 726.432C1811.31 729.146 1813.01 731.72 1815.54 732.972C1817.96 741.664 1813.6 751.668 1809.4 759.16C1809.27 759.383 1809.26 759.594 1809.3 759.795C1809.3 759.847 1809.3 759.898 1809.32 759.957C1809.32 759.957 1809.33 759.964 1809.32 759.977C1809.38 760.192 1809.51 760.398 1809.77 760.549C1814.59 763.339 1819.49 765.994 1824.31 768.784C1824.54 768.92 1824.75 768.927 1824.96 768.894C1824.99 768.884 1825.04 768.893 1825.08 768.882C1825.09 768.87 1825.1 768.877 1825.1 768.865C1825.32 768.807 1825.53 768.679 1825.68 768.419C1830.16 760.527 1835.96 752.317 1845.2 749.695C1846.14 750.535 1847.26 751.168 1848.61 751.469C1850.5 751.886 1853.2 751.91 1854.94 750.714C1856.09 752.523 1858.02 753.507 1860.43 753.219C1863.52 752.856 1864.68 750.861 1865.16 748.196C1871.53 748.477 1875.29 741.849 1871.73 736.763ZM1824.43 766.54C1820.18 764.092 1815.88 761.738 1811.62 759.29C1815.75 751.767 1819.6 742.284 1817.78 733.673C1818.86 733.836 1820 733.751 1821.07 733.342C1820.98 735.588 1821.85 737.848 1823.79 739.237C1823.86 739.293 1823.93 739.316 1824 739.371C1824 739.455 1823.97 739.524 1824 739.602C1824.42 741.533 1824.51 743.457 1824.28 745.425C1824.18 746.407 1825.74 746.797 1826.14 745.924C1827.03 744.022 1827.99 742.182 1829.02 740.359C1830.28 740.179 1831.54 739.769 1832.71 739.237C1832.7 740.006 1832.73 740.752 1832.83 741.458C1832.78 741.609 1832.71 741.701 1832.63 741.837C1831.7 743.666 1830.66 745.431 1829.63 747.215C1829.14 748.058 1830.14 749.113 1830.99 748.581C1832.79 747.505 1834.71 746.731 1836.66 745.99C1838.8 746.698 1840.71 746.2 1842.48 745.089C1842.76 746.145 1843.21 747.135 1843.79 748.018C1834.82 750.945 1828.98 758.684 1824.43 766.54ZM1826.73 740.372C1826.57 740.665 1826.42 740.937 1826.26 741.229C1826.23 740.913 1826.19 740.59 1826.14 740.279C1826.33 740.31 1826.53 740.341 1826.73 740.372ZM1832.98 745.316C1833.23 744.85 1833.48 744.365 1833.72 743.892C1833.92 744.187 1834.16 744.458 1834.42 744.712C1833.94 744.913 1833.46 745.115 1832.98 745.316ZM1864.57 746.152C1864.09 746.072 1863.39 746.291 1863.35 746.867C1863.13 750.298 1857.7 753.205 1856.16 748.774C1855.87 747.981 1854.78 747.747 1854.33 748.528C1853.14 750.585 1848.96 749.656 1847.51 748.816C1845.38 747.583 1844.46 745.512 1844.13 743.138C1844.01 742.322 1842.98 742.252 1842.46 742.682C1840.08 744.66 1837.11 745.062 1835.48 742.062C1834.52 740.304 1834.69 739.506 1834.81 737.589C1834.85 736.822 1833.94 736.375 1833.31 736.721C1831.78 737.705 1830.09 738.281 1828.24 738.45C1823.75 737.489 1822.15 735.191 1823.44 731.556C1823.78 730.596 1822.44 729.936 1821.77 730.588C1816.49 732.792 1812.7 729.77 1814.63 726.154C1815.1 725.555 1814.89 724.303 1813.92 724.436C1808.3 725.241 1805.83 716.648 1810.39 715.695C1811.31 715.501 1811.29 714.313 1810.63 713.85C1806.24 710.829 1808.95 704.073 1814.76 706.68C1815.66 707.081 1816.62 706.249 1816.13 705.321C1813.5 700.143 1820.24 693.999 1823.75 699.641C1824.35 700.582 1825.91 700.01 1825.6 698.888C1826.39 695.312 1827.93 694.463 1830.18 696.334C1830.53 696.714 1831.27 696.746 1831.6 696.343C1832.91 694.82 1834.56 692.599 1836.68 692.465C1839.28 693.028 1840.58 694.744 1840.57 697.598C1840.56 698.534 1841.64 698.831 1842.28 698.305C1843.6 697 1845.13 696.298 1846.85 696.205C1849.8 695.398 1851.84 697.107 1852.98 701.34C1852.52 702.467 1854.21 702.929 1854.82 702.094C1857.52 698.442 1864.03 704.114 1862.22 707.32C1861.7 708.256 1862.71 709.043 1863.58 708.686C1870.51 708.808 1872.43 711.261 1869.36 716.032C1868.84 716.545 1869.04 717.552 1869.8 717.714C1871.9 717.701 1873.13 718.745 1873.82 720.551C1874.2 722.031 1874.3 723.557 1872.9 724.716C1872.37 725.12 1872.11 726.111 1872.89 726.448C1878.21 728.82 1873.94 734.685 1869.75 734.974C1868.95 735.021 1868.37 736.056 1869.05 736.682C1873.18 740.514 1870.65 747.153 1864.57 746.152Z" fill="#333333" fill-opacity="0.3"/>
<path d="M1819.81 747.801C1819.22 751.216 1817.05 754.625 1815.36 757.581C1814.71 758.696 1816.45 759.7 1817.09 758.585C1818.87 755.48 1821.13 751.891 1821.76 748.299C1821.96 747.041 1820.02 746.531 1819.81 747.801Z" fill="#333333" fill-opacity="0.3"/>
<path d="M1821.77 744.053C1820.65 743.407 1819.65 745.142 1820.76 745.787C1821.88 746.433 1822.88 744.698 1821.77 744.053Z" fill="#333333" fill-opacity="0.3"/>
<path d="M1827.45 710.632C1825.83 710.193 1824.07 711.073 1823.33 712.548C1822.77 713.694 1824.49 714.711 1825.06 713.552C1825.9 711.884 1828.16 712.497 1828.04 714.363C1827.95 715.654 1829.96 715.642 1830.04 714.351C1830.16 712.697 1829.06 711.071 1827.45 710.632Z" fill="#333333" fill-opacity="0.3"/>
<path d="M1858.44 716.743C1856.79 715.654 1854.63 716.439 1854 718.273C1853.57 719.486 1855.51 719.996 1855.93 718.783C1856.26 717.816 1857.44 718.318 1857.84 718.925C1858.39 719.774 1858.14 720.836 1857.81 721.708C1857.37 722.926 1859.32 723.423 1859.75 722.218C1860.44 720.316 1860.27 717.952 1858.44 716.743Z" fill="#333333" fill-opacity="0.3"/>
<path d="M1844.71 727.571C1843.11 726.678 1840.92 727.493 1840.18 729.135C1839.65 730.303 1841.38 731.319 1841.91 730.14C1842.21 729.484 1842.97 728.947 1843.7 729.306C1844.43 729.658 1844.5 730.625 1844.11 731.23C1843.43 732.324 1845.16 733.328 1845.85 732.234C1846.81 730.677 1846.33 728.479 1844.71 727.571Z" fill="#333333" fill-opacity="0.3"/>
<path d="M1755 798.5C1755 798.963 1754.67 799.567 1753.74 800.111C1752.83 800.64 1751.51 801 1750 801C1748.49 801 1747.17 800.64 1746.26 800.111C1745.33 799.567 1745 798.963 1745 798.5C1745 798.037 1745.33 797.433 1746.26 796.889C1747.17 796.36 1748.49 796 1750 796C1751.51 796 1752.83 796.36 1753.74 796.889C1754.67 797.433 1755 798.037 1755 798.5Z" stroke="#333333" stroke-opacity="0.3" stroke-width="2"/>
<path d="M1653 851C1653 848.986 1652.39 847.202 1651.44 845.943C1650.5 844.685 1649.27 844 1648 844C1646.73 844 1645.5 844.685 1644.56 845.943C1643.61 847.202 1643 848.986 1643 851C1643 853.014 1643.61 854.798 1644.56 856.057C1645.5 857.315 1646.73 858 1648 858C1649.27 858 1650.5 857.315 1651.44 856.057C1652.39 854.798 1653 853.014 1653 851Z" stroke="#333333" stroke-opacity="0.3" stroke-width="2"/>
<circle cx="4.5" cy="4.5" r="3.5" transform="matrix(1 0 0 -1 1741 914)" stroke="#333333" stroke-opacity="0.3" stroke-width="2"/>
<path d="M1904.68 855.356C1905.02 855.194 1905.24 854.898 1905.2 854.616C1905.52 854.143 1905.88 853.684 1906.21 853.196C1907.2 851.701 1908.16 850.192 1909.05 848.638C1911.21 844.821 1911.98 840.529 1911.12 836.223C1910.27 831.991 1907.97 828.144 1905.1 824.963C1898.9 818.126 1889.51 813.643 1880.24 813.628C1875.75 813.628 1871.24 814.782 1867.55 817.372C1865.53 818.792 1863.93 820.583 1862.41 822.506C1860.69 824.682 1859.05 826.916 1857.45 829.18C1849.95 839.834 1843.41 851.184 1837.58 862.829C1832.06 873.853 1826.98 885.291 1823.59 897.174C1822.35 901.554 1821.28 906.067 1821.05 910.639C1820.9 913.569 1821.02 916.958 1822.67 919.488C1826.23 924.889 1833.85 922.211 1838.43 919.902C1847.03 915.581 1854.62 909.085 1861.75 902.708C1870.11 895.25 1877.99 887.23 1885.49 878.928C1885.56 878.914 1885.64 878.914 1885.71 878.884C1885.92 878.81 1886.13 878.647 1886.11 878.411C1886.11 878.366 1886.11 878.307 1886.1 878.263C1886.41 877.922 1886.72 877.582 1887.03 877.242C1893.27 870.272 1899.32 863.051 1904.68 855.356ZM1890.76 869.443C1888.6 872.003 1886.39 874.534 1884.16 877.034C1879.57 874.741 1875.57 871.648 1872.07 867.816C1871.91 867.638 1871.34 867.786 1871.51 868.052C1873.16 870.731 1875.29 872.965 1877.78 874.918C1878.99 875.865 1880.3 876.709 1881.64 877.449C1882.12 877.715 1882.6 877.952 1883.09 878.189C1878.11 883.708 1872.96 889.079 1867.63 894.244C1867.45 894.125 1867.23 894.037 1866.99 893.933C1866.5 893.711 1866 893.474 1865.53 893.223C1864.58 892.749 1863.66 892.231 1862.75 891.743C1860.85 890.707 1858.99 889.583 1857.15 888.428C1856.97 888.325 1856.55 888.502 1856.75 888.724C1858.19 890.263 1859.74 891.565 1861.46 892.794C1862.33 893.415 1863.25 893.963 1864.18 894.495C1864.79 894.836 1865.54 895.353 1866.3 895.59C1859.12 902.501 1851.6 909.204 1843.35 914.797C1840.24 916.913 1836.97 918.94 1833.45 920.287C1832.14 920.79 1830.92 921.175 1829.61 921.338C1829.47 921.352 1829.32 921.367 1829.19 921.382C1829.04 921.397 1829.26 921.382 1828.98 921.397C1828.84 921.397 1828.71 921.397 1828.56 921.397C1828.49 921.397 1828.43 921.397 1828.36 921.397C1828.33 921.397 1828.34 921.397 1828.33 921.397C1828.18 921.382 1827.47 921.264 1827.84 921.338C1827.72 921.308 1827.6 921.278 1827.48 921.249C1827.41 921.219 1827.38 921.219 1827.37 921.219C1827.35 921.219 1827.35 921.219 1827.32 921.204C1826.61 920.923 1825.84 920.361 1825.22 919.443C1824.51 918.378 1824.12 917.106 1823.9 915.863C1823.27 912.267 1823.8 908.434 1824.48 904.883C1825.49 899.585 1827.01 894.362 1828.84 889.257C1830.75 891.24 1833.54 892.542 1836.04 893.578C1837.46 894.155 1838.92 894.658 1840.4 895.072C1841.14 895.279 1841.9 895.457 1842.64 895.605C1843.33 895.753 1843.98 895.945 1844.62 895.561C1844.84 895.427 1845.02 895.176 1844.89 894.924C1844.57 894.303 1843.79 894.347 1843.18 894.229C1842.52 894.11 1841.85 893.963 1841.19 893.8C1839.78 893.459 1838.39 893.03 1837.03 892.527C1834.25 891.491 1831.72 889.952 1829.01 888.783C1830.89 883.59 1833.08 878.485 1835.33 873.513C1836.58 870.716 1837.92 867.934 1839.26 865.182C1840.02 866.292 1841.41 867.105 1842.47 867.86C1843.79 868.792 1845.14 869.651 1846.53 870.464C1849.19 872.003 1852.18 873.661 1855.2 874.341C1855.66 874.445 1856.6 873.912 1855.89 873.513C1854.64 872.788 1853.26 872.27 1851.96 871.619C1850.58 870.938 1849.25 870.183 1847.95 869.369C1846.66 868.57 1845.4 867.727 1844.2 866.809C1843.04 865.922 1841.93 864.693 1840.58 864.087C1840.42 864.013 1840.14 863.998 1839.85 864.028C1843.52 856.673 1847.5 849.452 1851.8 842.438C1853.72 845.191 1856.34 847.381 1859.22 849.097C1861 850.162 1862.86 851.095 1864.74 851.953C1865.62 852.352 1866.5 852.752 1867.39 853.137C1868.28 853.521 1869.08 853.965 1870.07 853.832C1870.43 853.788 1870.91 853.492 1870.72 853.063C1870.41 852.352 1869.63 852.175 1868.96 851.909C1868.01 851.524 1867.05 851.124 1866.1 850.71C1864.31 849.926 1862.55 849.097 1860.85 848.15C1857.68 846.389 1854.77 844.288 1852.22 841.743C1852.7 840.973 1853.16 840.174 1853.63 839.405C1856.71 834.507 1859.95 829.713 1863.46 825.111C1866.3 821.367 1869.23 817.949 1873.75 816.247C1881.83 813.214 1890.98 816.084 1897.73 820.923C1904.37 825.688 1909.99 833.604 1908.66 842.157C1908.34 844.244 1907.6 846.226 1906.56 848.076C1905.47 849.97 1904.3 851.835 1903.07 853.655C1898.01 851.864 1893.3 849.186 1889.08 845.871C1888.92 845.738 1888.46 845.886 1888.67 846.108C1892.41 850.089 1897.1 852.989 1902.18 854.912C1898.64 859.899 1894.71 864.738 1890.76 869.443Z" fill="#333333" fill-opacity="0.3"/>
<path d="M1923.68 800.548C1923.75 799.186 1923.38 797.854 1923.21 796.508C1922.76 793.09 1924.08 791.802 1926.77 789.953C1928.56 788.724 1929.89 787.334 1929.14 785.055C1928.71 783.782 1927.22 782.554 1927.19 781.163C1927.13 778.307 1930.86 778.026 1932.63 776.872C1934.6 775.599 1935.31 773.676 1934.42 771.426C1933 767.831 1928.46 766.188 1929.55 761.719C1930.32 758.553 1933.03 755.889 1931.6 752.456C1930.57 750 1927.94 748.579 1925.54 747.81C1920.29 746.093 1913.19 746.715 1913.03 753.522C1912.97 756.141 1913.69 756.984 1910.45 758.878C1909.61 759.367 1908.56 759.544 1907.68 759.973C1906.72 760.447 1905.66 761.039 1905 761.941C1902.67 765.226 1906.54 766.854 1907 769.858C1907.67 774.238 1900.6 775.481 1899.54 779.358C1898.88 781.814 1900.36 783.975 1901.23 786.15C1903.6 792.024 1897.8 792.468 1895.67 796.626C1895.06 797.795 1895.06 798.935 1895.43 800.192C1896.23 802.974 1897.92 804.572 1896.69 807.68C1895.53 810.595 1892.23 813.717 1893.48 817.165C1894.2 819.177 1896.27 820.258 1898.21 819.592C1897.95 820.095 1897.67 820.583 1897.43 821.101C1897.35 821.279 1897.64 821.279 1897.71 821.205C1900.83 818.068 1903.16 814.087 1905.4 810.299C1907.88 806.097 1910.15 801.776 1912.12 797.307C1915.81 788.976 1919.28 779.876 1920.7 770.849C1920.85 769.888 1919.14 770.05 1918.91 770.82C1916.34 779.876 1914.02 788.739 1910.17 797.381C1908.39 801.361 1906.48 805.268 1904.38 809.086C1902.56 812.385 1900.36 815.552 1898.57 818.881C1898.46 818.852 1898.36 818.852 1898.23 818.896C1893.7 820.642 1894.72 813.998 1895.58 812.311C1896.19 811.113 1897.04 810.033 1897.65 808.834C1898.79 806.6 1899.03 804.632 1898.05 802.294C1897.34 800.577 1896.17 798.875 1897.1 796.967C1897.8 795.531 1899.49 794.643 1900.68 793.637C1902.28 792.305 1903.64 790.811 1903.57 788.606C1903.51 786.756 1902.46 785.144 1901.78 783.486C1900.83 781.178 1900.61 779.225 1902.64 777.242C1903.87 776.028 1905.51 775.289 1906.74 774.06C1908.17 772.61 1909.09 770.864 1908.39 768.822C1908.1 767.979 1907.48 767.313 1907.02 766.573C1905.95 764.901 1905.76 764.93 1906.77 763.022C1907.79 761.083 1908.73 760.92 1910.63 760.121C1912.36 759.396 1913.97 758.479 1914.53 756.57C1914.86 755.445 1914.64 754.38 1914.64 753.241C1914.62 749.023 1918.62 747.751 1922.23 748.313C1925.71 748.846 1930.8 750.829 1930.46 755.149C1930.23 758.079 1927.78 760.402 1927.78 763.392C1927.78 765.463 1928.99 766.928 1930.29 768.393C1931.4 769.651 1932.81 770.849 1933.21 772.581C1933.84 775.363 1931 776.384 1928.99 777.301C1927.75 777.878 1926.33 778.544 1925.82 779.935C1924.92 782.436 1927.66 783.782 1927.85 786.031C1928.12 789.183 1923.09 790.041 1921.95 792.705C1920.93 795.073 1922.14 797.632 1922.21 800.03C1922.35 804.202 1916.56 807.192 1914.06 810.24C1910.98 813.984 1907.52 819.237 1901.85 817.979C1901.11 817.816 1900.3 818.837 1901.26 819.044C1909.19 820.805 1912.82 812.726 1917.61 808.213C1920.02 805.875 1923.49 804.38 1923.68 800.548Z" fill="#333333" fill-opacity="0.3"/>
<path d="M1946.26 805.461C1947.43 803.463 1949.47 803.019 1951.59 802.472C1956.04 801.317 1960.14 799.512 1962.17 795.058C1965.81 787.008 1956.74 777.627 1949.09 783.531C1948.2 784.226 1947.55 785.011 1947.02 786.017C1946.83 786.387 1946.75 786.816 1946.54 787.171C1946.37 788.429 1945.55 789.184 1944.13 789.406C1943.29 790.56 1942.34 790.885 1941.32 790.367C1939.28 790.101 1937.75 788.976 1935.61 789.524C1931.6 790.53 1930.39 794.851 1932.56 798.018C1929.19 798.905 1923.73 795.768 1921.45 799.675C1920.97 800.474 1921.02 801.258 1921.08 802.131C1921.27 804.81 1920.04 806.659 1917.41 807.503C1915.44 808.124 1913.1 808.361 1911.65 810.033C1910.26 811.616 1910.96 813.451 1910.29 815.227C1908.94 818.852 1905.42 817.876 1903.06 820.021C1901.59 821.353 1901.83 823.809 1903.45 824.416C1903.32 828.914 1908.35 829.861 1911.83 829.077C1914.97 828.367 1917.56 826.784 1920.89 827.716C1922.87 828.263 1924.78 829.373 1926.89 829.417C1931.21 829.521 1932.13 825.807 1933.17 822.433C1934.31 818.763 1936.28 817.876 1939.77 817.047C1941.4 816.662 1943.19 816.218 1944.37 814.931C1945.58 813.584 1945.7 811.912 1945.66 810.196C1945.6 808.479 1945.36 807.014 1946.26 805.461ZM1939.52 815.789C1936.23 816.588 1933.42 817.165 1931.95 820.583C1930.65 823.646 1930.76 828.84 1925.93 827.908C1924.07 827.553 1922.4 826.458 1920.52 826.073C1916.88 825.333 1906.52 830.35 1905.91 824.934C1909.23 824.46 1912.58 823.217 1915.57 821.989C1919.32 820.465 1922.94 818.615 1926.3 816.337C1929.56 814.132 1932.61 811.646 1935.39 808.864C1936.76 807.488 1938.07 806.038 1939.31 804.543C1940.55 803.049 1942.08 801.406 1942.68 799.542C1942.98 798.639 1941.4 798.683 1940.98 799.053C1939.71 800.208 1938.79 801.732 1937.74 803.078C1936.5 804.647 1935.17 806.141 1933.77 807.577C1930.99 810.403 1927.94 812.978 1924.66 815.197C1921.6 817.269 1918.4 819.148 1915.01 820.657C1912.02 821.989 1908.89 822.818 1905.84 823.868C1905.67 823.277 1904.7 823.203 1904.03 823.558C1902.29 822.315 1902.85 821.013 1905.79 819.636C1906.09 819.548 1906.38 819.459 1906.68 819.37C1907.45 819.045 1908.28 818.926 1909.02 818.556C1910.11 817.994 1910.9 817.313 1911.37 816.174C1912.44 813.599 1910.9 811.498 1913.98 809.604C1915.57 808.612 1917.69 808.627 1919.41 807.858C1922.35 806.541 1922.69 804.898 1922.5 801.924C1922.2 797.381 1927.35 799.024 1929.88 799.231C1931.39 799.364 1932.59 799.216 1933.97 798.609C1934.28 798.476 1934.37 798.106 1934.14 797.855C1932.8 796.286 1932.31 794.096 1933.52 792.261C1935.14 789.82 1937.62 790.382 1939.87 791.122C1941.26 791.566 1942.7 792.143 1944.18 791.877C1945.64 791.61 1946.53 790.722 1947.25 789.465C1947.95 788.237 1948.07 786.816 1948.88 785.617C1950.21 783.664 1952.71 782.673 1955.04 782.939C1963.01 783.871 1962.58 794.348 1957.76 798.417C1954.12 801.495 1947.74 800.489 1944.87 804.454C1943.88 805.831 1943.82 807.399 1943.85 809.027C1943.91 812.726 1943.38 814.857 1939.52 815.789Z" fill="#333333" fill-opacity="0.3"/>
<path d="M1890.91 810.018C1890.83 809.19 1890.58 807.873 1890.98 807.133C1891.66 805.845 1893.23 805.298 1894.5 804.928C1895.27 804.706 1895.98 804.41 1896.48 803.729C1898.05 801.613 1896.28 799.098 1895.49 797.085C1893.33 791.551 1902.73 789.258 1899.62 783.709C1898.28 781.311 1895.08 779.447 1897.03 776.413C1898.28 774.49 1900.27 772.862 1899.12 770.376C1898.65 769.37 1897.82 768.571 1897.02 767.816C1895.73 766.573 1894.69 765.256 1893.87 763.658C1892.53 761.098 1891.44 758.198 1888.97 756.481C1885.74 754.247 1879.59 755.579 1880.47 760.418C1880.95 762.992 1883.29 765.73 1880.06 767.461C1878.34 768.379 1875.99 768.882 1875.49 771.101C1875 773.232 1876.73 775.008 1877.93 776.517C1879.07 777.952 1880.19 779.669 1878.86 781.341C1878.08 782.332 1876.86 782.85 1876.58 784.182C1875.99 786.905 1879.05 788.547 1880.56 790.19C1883.69 793.593 1878.61 795.295 1878.46 798.609C1878.39 800.178 1879.29 801.628 1879.45 803.167C1879.65 804.943 1879.28 806.718 1879.32 808.494C1879.38 811.187 1880.65 813.91 1883.48 814.487C1883.79 814.546 1884.13 814.443 1884.38 814.25C1884.34 814.398 1884.29 814.561 1884.25 814.724C1884.16 814.99 1884.71 815.02 1884.81 814.827C1887.83 808.642 1889.26 801.924 1889.47 795.058C1889.68 788.355 1888.63 780.838 1885.7 774.756C1885.39 774.105 1883.71 774.371 1883.94 775.141C1884.9 778.308 1885.96 781.415 1886.59 784.67C1887.22 788.015 1887.52 791.388 1887.55 794.792C1887.61 801.125 1886.5 807.399 1884.62 813.436C1884.53 813.362 1884.43 813.303 1884.25 813.274C1880.73 812.563 1881.1 808.316 1881.24 805.623C1881.32 804.351 1881.36 803.108 1881.07 801.85C1880.83 800.814 1880.19 799.793 1880.24 798.728C1880.33 796.242 1883.26 795.162 1883.49 792.705C1883.66 791.033 1882.5 789.746 1881.35 788.695C1880.47 787.911 1879.42 787.23 1878.83 786.18C1877.66 784.123 1879.17 783.427 1880.37 782.081C1881.51 780.808 1881.58 779.403 1880.9 777.864C1880.09 776.073 1878.37 774.875 1877.6 773.084C1876.17 769.769 1880.05 769.4 1881.98 768.023C1885.58 765.463 1882.03 762.46 1882.29 759.263C1882.5 756.896 1885.12 756.215 1887.01 757.162C1888.51 757.902 1889.52 759.397 1890.33 760.802C1891.57 762.978 1892.39 765.375 1894.04 767.298C1895.66 769.178 1898.62 770.894 1897 773.72C1896.01 775.452 1894.27 776.739 1894.59 778.944C1894.83 780.483 1895.98 781.607 1896.93 782.762C1897.68 783.664 1898.56 784.656 1898.66 785.899C1898.81 787.615 1897.52 788.917 1896.48 790.086C1895.23 791.492 1893.72 792.957 1893.61 794.969C1893.48 797.455 1895.86 799.29 1895.79 801.717C1895.69 804.869 1891.39 803.892 1890.17 806.274C1889.66 807.251 1889.69 808.464 1889.8 809.53C1889.84 809.974 1889.93 810.403 1889.96 810.847C1890.05 811.468 1890.05 812.09 1890 812.711C1889.9 814.102 1888.85 814.62 1886.84 814.25C1886.63 813.954 1885.86 814.147 1886.08 814.487C1886.82 815.626 1888.11 815.76 1889.31 815.168C1891.23 814.161 1891.05 811.868 1890.91 810.018Z" fill="#333333" fill-opacity="0.3"/>
<path d="M1886.6 821.752C1881.63 820.272 1876.08 821.323 1871.87 824.341C1869.61 825.969 1867.72 828.144 1866.44 830.645C1865.78 831.932 1865.24 833.294 1864.9 834.699C1864.59 835.972 1864.19 837.526 1864.68 838.783C1865.04 839.686 1866.55 839.213 1866.83 838.532C1867.29 837.437 1867.18 836.075 1867.45 834.906C1867.72 833.723 1868.1 832.569 1868.6 831.488C1869.67 829.224 1871.22 827.227 1873.19 825.673C1876.88 822.773 1881.74 821.707 1886.35 822.314C1886.7 822.358 1887.06 821.885 1886.6 821.752Z" fill="#333333" fill-opacity="0.3"/>
<path d="M1864.85 841.61C1864.85 841.595 1864.85 841.595 1864.85 841.595C1864.88 841.462 1864.89 841.314 1864.8 841.195C1864.8 841.195 1864.8 841.181 1864.79 841.181C1864.74 841.121 1864.7 841.062 1864.64 840.988C1864.58 840.914 1864.51 840.87 1864.43 840.84C1864.34 840.811 1864.27 840.766 1864.18 840.737C1864.08 840.722 1863.99 840.707 1863.89 840.677C1863.72 840.663 1863.57 840.677 1863.41 840.722C1863.31 840.737 1863.22 840.766 1863.12 840.811C1863.03 840.84 1862.94 840.885 1862.86 840.944C1862.79 840.988 1862.72 841.047 1862.67 841.121C1862.61 841.181 1862.57 841.24 1862.54 841.329C1862.48 841.432 1862.46 841.55 1862.48 841.669C1862.51 841.743 1862.52 841.817 1862.55 841.891C1862.6 841.95 1862.64 842.009 1862.7 842.083L1862.91 842.231C1863 842.261 1863.07 842.305 1863.16 842.335C1863.26 842.35 1863.35 842.364 1863.46 842.379C1863.62 842.394 1863.77 842.379 1863.93 842.335C1864.03 842.32 1864.12 842.29 1864.23 842.246C1864.36 842.202 1864.48 842.128 1864.58 842.024C1864.61 841.994 1864.64 841.965 1864.67 841.92C1864.76 841.832 1864.82 841.728 1864.85 841.61Z" fill="#333333" fill-opacity="0.3"/>
<path d="M93.7017 110.279C94.2153 109.446 93.4972 108.628 92.7791 108.182C93.5287 105.829 93.9742 102.6 93.2037 100.267C93.1513 100.115 93.015 99.9949 92.8525 100C92.2969 100.011 91.7098 100.168 91.1857 100.325C91.0074 100.378 90.8607 100.587 90.9288 100.776C91.778 103.119 91.5788 105.315 90.9812 107.663C90.174 107.632 89.1047 107.81 89.0733 108.701C88.6225 108.806 88.1874 108.99 87.7943 109.283C86.0855 110.567 85.9702 113.649 85.4041 115.542C84.4135 118.86 82.7728 121.763 79.3396 122.953C78.092 123.388 76.8236 123.619 75.5027 123.629C74.858 123.635 74.208 123.624 73.5738 123.477C73.0496 123.357 72.4887 122.938 71.9855 122.89C70.8009 122.775 70.8062 123.671 71.3618 124.463C72.6041 126.224 74.5959 126.591 76.5825 126.848C81.6354 127.503 85.9964 126.067 89.2358 122.067C91.0284 119.855 92.5485 117.408 93.4815 114.708C94.0161 113.183 94.4355 111.563 93.7017 110.279ZM91.28 108.418C91.5159 108.444 91.6312 108.266 91.6312 108.083C91.6312 108.078 91.6364 108.078 91.6364 108.072C92.2759 105.651 92.517 103.35 91.7518 100.954C91.9509 100.917 92.1554 100.886 92.3179 100.807C92.4646 100.739 92.5275 100.692 92.5537 100.661C92.884 101.201 92.7844 102.516 92.7948 103.098C92.8211 104.702 92.5065 106.725 91.9876 108.261C91.9824 108.282 91.9824 108.298 91.9824 108.313C91.9772 108.324 91.9771 108.334 91.9771 108.35C91.9719 108.382 91.9719 108.413 91.9771 108.439C91.9824 108.465 91.9929 108.486 92.0034 108.513C92.0086 108.523 92.0138 108.539 92.0243 108.549C92.04 108.581 92.0715 108.602 92.0977 108.628C92.1029 108.633 92.1082 108.638 92.1134 108.638C92.1292 108.649 92.1396 108.665 92.1606 108.675C92.4751 108.832 93.0412 109.168 93.1303 109.571C93.0097 109.461 92.8787 109.356 92.7319 109.257C92.7005 109.22 92.6586 109.189 92.6061 109.163C91.7622 108.806 90.782 108.555 89.8386 108.596C90.0325 108.298 91.0703 108.392 91.28 108.418ZM90.5567 119.017C89.1414 121.203 87.4641 123.409 85.2049 124.777C82.6837 126.303 79.5964 126.486 76.7397 126.124C75.3926 125.951 74.0508 125.82 72.9395 124.971C72.7037 124.793 71.8021 124.148 72.1585 123.781C72.1585 123.781 73.1125 124.117 73.1544 124.133C76.7083 125.06 81.279 123.781 83.6115 120.925C84.9114 119.326 85.64 117.376 86.2113 115.421C86.5625 114.205 86.746 112.863 87.2177 111.689C88.1927 109.267 90.0954 108.885 92.2287 109.792C95.1431 111.652 91.8723 116.983 90.5567 119.017Z" fill="#333333" fill-opacity="0.7"/>
<path d="M91.3587 112.502C91.5788 114.907 89.6394 117.481 88.3552 119.4C88.0931 119.793 88.7273 120.16 88.9894 119.772C90.3627 117.722 92.3284 115.101 92.0925 112.507C92.0453 112.035 91.3115 112.035 91.3587 112.502Z" fill="#333333" fill-opacity="0.7"/>
<path d="M91.605 111.537C92.0767 111.537 92.0767 110.803 91.605 110.803C91.1332 110.803 91.1332 111.537 91.605 111.537Z" fill="#333333" fill-opacity="0.7"/>
<path d="M61.5013 90.023C61.695 82.5551 58.4791 74.6681 54.1596 68.7132C49.499 62.2874 42.7897 58.6849 35.6002 55.6456C29.1803 52.9264 22.2622 50.8752 15.2503 52.1627C4.65125 54.1118 -4.11804 61.5353 -6.29422 72.2629C-7.33694 77.4137 -7.46035 83.2478 -3.82405 87.4182C-0.48761 91.2345 3.76573 93.272 8.22886 94.9729C8.22255 94.9861 8.22256 94.9861 8.21625 94.9992C5.84956 101.799 -3.56883 106.758 -3.52497 114.372C-3.48261 120.739 3.71235 123.327 8.46495 125.539C13.8428 128.035 20.9728 131.806 25.0225 125.279C28.6336 119.464 26.1544 112.27 29.1729 106.172C31.6908 107.54 34.5743 108.516 37.3217 109.169C43.0198 110.522 47.5468 109.048 52.1787 105.665C57.2746 101.922 61.3247 96.5763 61.5013 90.023ZM22.6372 125.189C19.9 127.455 16.0004 126.64 13.1657 125.46C11.87 124.92 10.6053 124.282 9.33489 123.689C6.5833 122.404 3.35795 121.296 1.07016 119.245C-2.73615 115.835 -1.06215 111.326 1.58251 107.833C4.72582 103.705 8.28405 100.941 10.0403 95.8892C10.065 95.8039 10.0639 95.7386 10.0691 95.6602C13.2428 96.8082 16.4676 97.8834 19.51 99.3732C22.3719 101.003 24.6836 103.309 27.3919 105.124C25.5582 108.682 25.1769 112.012 25.0542 115.952C24.9741 118.553 24.872 123.329 22.6372 125.189ZM20.3931 97.5297C14.1961 94.4802 7.44934 93.2881 1.73507 89.4336C8.47132 89.2283 16.0335 91.5233 21.8533 94.2788C27.357 96.8829 34.7036 101.487 37.6403 107.152C30.6641 105.526 26.4467 100.98 20.3931 97.5297ZM57.3652 97.2375C53.8943 103.233 47.02 108.018 40.05 107.529C40.05 107.529 40.0562 107.516 40.0431 107.509C37.3727 100.985 29.8911 96.1217 23.8362 92.9783C16.8195 89.3418 7.32927 86.5765 -0.666857 87.5869C-5.43531 83.2788 -5.54869 76.959 -3.92366 71.0996C0.401592 55.3788 17.8453 51.1392 31.7582 56.2984C39.8417 59.2964 47.9017 63.2222 52.9162 70.4976C57.897 77.7082 62.1559 88.9605 57.3652 97.2375Z" fill="#333333" fill-opacity="0.7"/>
<path d="M18.33 57.0214C11.9803 58.0757 6.4454 61.3498 2.55522 66.4965C1.76308 67.5417 3.30108 68.8937 4.09952 67.8353C7.65096 63.1253 12.6664 60.0233 18.4885 59.0563C19.791 58.8383 19.6324 56.8034 18.33 57.0214Z" fill="#333333" fill-opacity="0.7"/>
<path d="M22.7574 56.6006C21.5722 56.0329 20.6891 57.8764 21.8742 58.4442C23.0594 59.0119 23.9425 57.1683 22.7574 56.6006Z" fill="#333333" fill-opacity="0.7"/>
<path d="M121.122 214.218C119.014 205.127 113.277 198.143 107.965 190.75C105.34 187.11 101.704 182.767 100.72 178.301C99.3685 172.16 101.714 164.193 102.701 158.091C102.933 156.625 100.662 156.214 100.431 157.68C99.2855 164.843 96.3775 174.065 99.2937 181.091C101.767 187.049 106.198 192.273 110.014 197.385C115.841 205.173 120.241 213.808 119.496 223.756C119.093 229.043 117.977 234.469 115.543 239.221C112.961 244.231 105.955 248.24 100.95 244.336C102.969 240.95 103.899 236.461 104.708 233.007C107.034 223.11 108.27 212.948 104.741 203.198C104.24 201.801 102.072 202.581 102.57 203.995C105.313 211.609 105.031 219.464 103.562 227.305C102.288 234.16 100.675 248.357 90.9949 246.589C82.2559 244.991 83.6668 236.637 84.4482 229.911C85.2442 223.104 86.7141 216.368 88.7207 209.814C89.1602 208.402 86.8733 207.989 86.45 209.403C83.6569 218.545 81.5898 228.305 81.6439 237.912C81.6468 239.655 81.6188 241.291 82.0564 242.76C77.114 246.841 69.7101 241.197 68.858 236.185C68.1586 232.089 68.1648 227.333 68.4738 223.218C69.198 213.568 72.5376 205.663 79.2745 198.607C80.3055 197.538 78.5513 196.031 77.5203 197.101C67.6242 207.454 65.2807 219.944 66.2864 233.827C66.4073 235.474 66.6239 237.054 67.0158 238.498C54.8308 241.135 50.1233 223.734 52.2852 214.377C54.7467 203.734 60.4208 198.479 69.0412 192.585C75.2896 188.322 83.8768 184.834 88.8399 179.066C94.5187 172.489 95.512 161.999 96.9909 153.825C97.255 152.365 94.9843 151.954 94.7203 153.414C93.5113 160.096 92.5608 167.294 89.6001 173.475C86.8571 179.193 81.3784 181.887 76.2303 185.159C68.8928 189.795 59.5357 194.484 54.7408 202.008C49.9797 209.437 47.2106 220.762 50.8092 229.201C54.0428 236.788 59.4773 242.578 67.7961 240.666C68.787 242.688 70.3909 244.285 73.0452 245.167C76.1906 246.205 80.1654 246.639 83.0739 244.82C83.3056 245.114 83.5727 245.397 83.9076 245.675C86.246 247.656 90.1039 249.292 93.1997 249.215C95.9755 249.148 98.0133 247.976 99.5685 246.23C104.986 250.544 112.597 247.633 116.414 242.277C121.663 234.835 123.121 222.888 121.122 214.218Z" fill="#333333" fill-opacity="0.7"/>
<path d="M99.8702 194.846C100.918 195.907 102.408 194.15 101.377 193.092C100.016 191.724 99.1319 190.039 98.632 188.174C98.2563 186.732 96.0854 187.529 96.4612 188.97C97.0587 191.222 98.2427 193.195 99.8702 194.846Z" fill="#333333" fill-opacity="0.7"/>
<path d="M96.7594 184.636C96.7682 184.587 96.777 184.539 96.7858 184.49C97.0499 183.03 94.7793 182.619 94.5152 184.079C94.5064 184.128 94.4976 184.177 94.4888 184.225C94.2247 185.685 96.4953 186.096 96.7594 184.636Z" fill="#333333" fill-opacity="0.7"/>
<path d="M245.674 79.5404C241.866 70.9942 235.394 65.8629 226.901 62.8413C227.616 61.9653 226.758 60.4813 225.614 60.8567C222.61 61.8401 220.089 60.9461 217.103 60.4098C215.405 60.0879 213.778 60.0701 212.169 60.231C215.119 56.9948 218.909 52.7933 215.512 49.2711C215.154 48.9135 214.421 48.7526 213.992 49.0744C211.471 50.9517 209.719 53.7945 206.948 55.2963C205.124 56.2976 203.551 56.977 202.156 58.157C201.03 53.3654 200.154 48.5023 198.33 43.9073C198.062 43.2458 197.508 42.8882 196.793 43.0312C192.841 43.8537 191.5 44.2828 192.913 48.0732C194.111 51.3093 195.487 54.8315 196.167 58.3894C189.712 55.3857 181.131 57.3882 174.444 55.4394C173.442 55.1354 172.423 56.3512 173.031 57.2809C174.605 59.641 176.84 61.3752 179.414 62.591C179.7 62.7162 179.968 62.8234 180.254 62.9128C167.739 65.988 158.299 72.2636 152.935 85.5478C145.837 103.141 152.22 120.68 165.558 133.41C178.449 145.711 198.491 149.001 215.333 144.191C232.765 139.203 245.835 126.706 249.214 108.576C251.02 98.9393 249.661 88.4979 245.674 79.5404ZM177.501 58.5503C183.902 59.2476 191.357 58.1212 196.542 61.4825C196.596 62.4122 196.614 63.3241 196.524 64.2359C196.381 65.845 198.884 65.8271 199.028 64.2359C199.421 59.9985 198.098 55.636 196.811 51.6669C196.274 49.9862 195.362 48.2698 194.987 46.5534C194.951 46.4104 194.701 45.9634 194.576 45.6416C194.844 45.8204 195.613 45.7668 196.292 45.6595C198.509 51.792 199.26 58.3179 201.28 64.5041C201.781 66.0238 204.195 65.3802 203.694 63.8426C203.39 62.895 203.104 61.9295 202.854 60.964C204.642 58.6755 207.252 58.2643 209.523 56.6194C211.31 55.3321 212.651 53.5442 214.261 52.0781C214.511 53.4548 213.206 54.9387 212.419 55.9042C210.899 57.7458 209.29 59.4979 207.878 61.4289C207.502 61.9474 207.627 62.4301 207.949 62.7877C208.199 63.2347 208.664 63.5386 209.308 63.3419C212.902 62.2692 215.78 62.7162 219.338 63.4671C220.286 63.6638 221.198 63.771 222.092 63.8068C220.661 64.8974 219.052 65.7378 217.264 65.8093C214.547 65.9165 211.74 65.3265 208.95 65.398C208.271 65.4159 207.896 65.8629 207.788 66.3814C207.77 66.435 207.77 66.5066 207.753 66.5602C207.753 66.6317 207.735 66.6853 207.753 66.7569C207.753 66.8284 207.735 66.8999 207.735 66.9893C208.11 69.3851 208.289 71.2624 209.844 73.2291C209.97 73.39 210.113 73.5152 210.238 73.6761C207.592 72.9788 205.124 72.0669 203.247 69.4208C202.997 69.0811 202.675 68.9202 202.335 68.8845C201.995 68.813 201.62 68.8845 201.28 69.1705C200.136 70.136 198.92 71.03 197.937 72.1742C197.061 73.1755 196.65 74.3019 195.398 74.8919C194.486 75.321 193.485 75.5534 192.484 75.7143C193.056 74.874 193.574 74.0158 194.111 73.0861C195.094 71.3518 195.917 70.7797 195.398 68.6699C195.255 68.0799 194.808 67.8117 194.325 67.776C194.272 67.776 194.236 67.7402 194.182 67.7402C190.893 67.6329 188.962 69.6354 185.904 70.2791C184.224 70.6366 182.454 70.2969 180.684 69.8321C181.631 69.5281 182.561 69.2063 183.491 68.8487C186.494 67.6866 189.426 66.3456 191.84 64.1644C192.287 63.7532 192.323 63.2525 192.108 62.8413C192.001 62.4837 191.751 62.1977 191.286 62.0725C186.387 60.8925 181.345 61.5719 177.501 58.5503ZM176.929 71.0121C176.804 71.1015 176.768 71.1551 176.929 71.0121ZM242.42 120.645C232.336 140.043 208.289 146.659 188.068 142.278C168.561 138.059 150.146 118.642 152.238 97.5626C153.311 86.8888 159.211 75.321 168.472 69.6354C173.961 66.2562 180.594 65.1656 186.852 64.1465C186.995 64.1286 187.12 64.0571 187.227 64.0035C187.442 64.0213 187.656 64.0392 187.871 64.0571C185.493 65.5589 182.74 66.5244 180.111 67.4005C178.824 67.8296 176.375 68.0441 175.356 69.0633C174.73 69.689 174.962 70.9763 175.91 71.1551C178.788 71.6915 181.685 72.9252 184.653 72.9252C187.674 72.9073 190.016 70.7975 192.895 70.3327C192.573 71.316 191.679 72.4067 191.286 73.104C190.606 74.284 189.766 75.3031 188.854 76.3222C188.193 77.0731 188.586 78.5392 189.73 78.4498C191.912 78.3068 194.164 78.0922 196.185 77.234C197.329 76.7513 198.098 76.1434 198.831 75.1779C199.832 73.8727 200.851 72.8536 202.013 71.8167C203.587 73.5867 205.482 74.8561 207.77 75.7143C209.952 76.5189 212.312 76.6619 214.475 77.4664C215.709 77.9313 216.495 76.2149 215.691 75.3746C214.6 74.2482 213.295 73.3543 212.222 72.2279C210.989 70.9048 210.613 69.5103 210.363 67.9369C213.063 68.0799 215.888 68.652 218.48 68.2051C220.876 67.7938 222.95 66.3814 224.809 64.7901C236.323 68.509 242.831 76.1791 245.835 87.89C248.731 98.9035 247.694 110.489 242.42 120.645Z" fill="#333333" fill-opacity="0.7"/>
<path d="M165.165 83.241C162 87.0314 159.139 90.8576 158.961 95.971C158.746 102.711 160.445 109.756 162.429 116.121C162.912 117.658 165.326 116.997 164.843 115.459C161.535 104.785 159.247 94.201 166.935 85.0111C167.954 83.7953 166.202 82.0073 165.165 83.241Z" fill="#333333" fill-opacity="0.7"/>
<path d="M170.457 77.627C168.847 77.627 168.847 80.13 170.457 80.13C172.066 80.13 172.066 77.627 170.457 77.627Z" fill="#333333" fill-opacity="0.7"/>
<path d="M-42.5 188.19C59.5 134.023 252.1 80.1897 206.5 298.19C180.194 423.95 133.761 403.707 84.5 391.097M-72 622.19C-40.9275 416.002 6.20374 382.717 54 385.627" stroke="#333333" stroke-opacity="0.7" stroke-width="2" stroke-linecap="round"/>
<path d="M247 149.5C247 149.963 246.671 150.567 245.739 151.111C244.831 151.64 243.512 152 242 152C240.488 152 239.169 151.64 238.261 151.111C237.329 150.567 237 149.963 237 149.5C237 149.037 237.329 148.433 238.261 147.889C239.169 147.36 240.488 147 242 147C243.512 147 244.831 147.36 245.739 147.889C246.671 148.433 247 149.037 247 149.5Z" stroke="#333333" stroke-opacity="0.7" stroke-width="2"/>
<path d="M145 202C145 199.986 144.387 198.202 143.443 196.943C142.499 195.685 141.272 195 140 195C138.728 195 137.501 195.685 136.557 196.943C135.613 198.202 135 199.986 135 202C135 204.014 135.613 205.798 136.557 207.057C137.501 208.315 138.728 209 140 209C141.272 209 142.499 208.315 143.443 207.057C144.387 205.798 145 204.014 145 202Z" stroke="#333333" stroke-opacity="0.7" stroke-width="2"/>
<circle cx="4.5" cy="4.5" r="3.5" transform="matrix(1 0 0 -1 233 265)" stroke="#333333" stroke-opacity="0.7" stroke-width="2"/>
<circle cx="4.5" cy="4.5" r="3.5" transform="matrix(1 0 0 -1 36 435)" stroke="#333333" stroke-opacity="0.7" stroke-width="2"/>
<path d="M181.685 229.143C181.685 229.379 181.848 229.561 181.975 229.742C182.102 229.924 182.229 230.105 182.375 230.287C182.629 230.632 182.919 230.959 183.21 231.267C183.591 231.685 184.027 232.048 184.463 232.393C182.284 232.629 180.123 233.137 178.072 233.9C178.035 233.9 177.999 233.9 177.963 233.882C177.636 233.809 177.309 233.773 177.001 233.664C176.71 233.573 176.42 233.464 176.129 233.319C175.984 233.246 175.857 233.174 175.712 233.101C175.566 233.028 175.403 232.901 175.239 232.865C175.058 232.829 174.895 232.974 175.022 233.155C175.131 233.319 175.276 233.41 175.439 233.519C175.603 233.627 175.766 233.718 175.948 233.791C176.274 233.936 176.619 234.063 176.964 234.154C177.055 234.172 177.146 234.172 177.218 234.19C175.258 234.989 173.388 236.024 171.735 237.277C171.499 237.458 171.899 237.84 172.099 237.694C172.607 237.349 173.115 237.041 173.642 236.732C173.587 236.895 173.515 237.059 173.515 237.24C173.497 237.422 173.515 237.622 173.533 237.803C173.533 237.84 173.587 237.876 173.605 237.84C173.66 237.694 173.714 237.531 173.787 237.386C173.86 237.24 173.896 237.059 173.969 236.895C174.023 236.75 174.096 236.587 174.186 236.442C174.205 236.405 174.223 236.387 174.241 236.351C176.401 235.153 178.744 234.281 181.158 233.755C181.122 233.791 181.086 233.809 181.049 233.845C180.813 234.063 180.577 234.281 180.341 234.517C180.123 234.735 179.905 234.971 179.706 235.207C179.597 235.334 179.506 235.461 179.397 235.57C179.288 235.715 179.125 235.861 179.161 236.06C179.197 236.278 179.397 236.46 179.633 236.423C179.815 236.387 179.887 236.242 179.996 236.097C180.087 235.97 180.178 235.842 180.269 235.697C180.45 235.443 180.65 235.207 180.85 234.971C181.049 234.735 181.249 234.517 181.449 234.299C181.558 234.19 181.667 234.081 181.794 233.954C181.903 233.845 181.975 233.718 182.066 233.573C182.356 233.519 182.647 233.446 182.937 233.391C185.37 233.046 187.694 233.137 190.018 233.482C189.964 233.482 189.927 233.482 189.873 233.5C189.709 233.519 189.546 233.591 189.401 233.646C189.092 233.773 188.802 233.9 188.511 234.063C188.239 234.208 187.967 234.372 187.712 234.553C187.567 234.662 187.44 234.771 187.313 234.88C187.204 234.989 187.059 235.098 186.986 235.243C186.805 235.552 187.277 235.97 187.585 235.788C187.712 235.715 187.821 235.588 187.948 235.497C188.075 235.407 188.184 235.298 188.312 235.207C188.548 235.007 188.784 234.826 189.02 234.662C189.274 234.499 189.528 234.354 189.8 234.208C189.927 234.136 190.091 234.081 190.218 234.009C190.345 233.936 190.454 233.845 190.581 233.773C190.654 233.718 190.635 233.646 190.599 233.573C191.997 233.809 193.377 234.118 194.775 234.553C195.665 234.826 195.356 233.664 194.739 233.446C193.686 233.065 192.596 232.792 191.507 232.574C191.126 232.229 190.744 231.921 190.418 231.54C190.163 231.249 189.909 230.959 189.673 230.668C189.419 230.359 189.219 229.924 188.82 229.778C188.729 229.742 188.548 229.778 188.548 229.906C188.511 230.142 188.638 230.287 188.784 230.468C188.911 230.632 189.038 230.795 189.183 230.959C189.455 231.267 189.728 231.558 190.018 231.848C190.254 232.084 190.508 232.266 190.762 232.484C188.874 232.193 186.95 232.157 185.043 232.32C184.59 231.885 184.136 231.449 183.736 230.959C183.5 230.668 183.264 230.359 183.065 230.051C182.956 229.887 182.847 229.724 182.756 229.561C182.629 229.361 182.538 229.125 182.32 228.998C182.066 228.871 181.703 228.816 181.685 229.143Z" fill="#333333" fill-opacity="0.7"/>
<path d="M180.413 224.005C180.649 224.694 181.031 225.366 181.612 225.802C178.925 225.856 176.274 226.419 173.787 227.454C173.133 227.726 172.498 228.017 171.898 228.38C171.535 228.598 170.609 228.961 170.464 229.415C170.337 229.832 170.827 230.123 171.118 230.305C171.535 230.577 171.953 230.831 172.37 231.103C169.629 232.356 166.869 233.845 164.527 235.733C164.4 235.842 164.455 236.042 164.6 236.132C165.199 236.496 165.834 236.732 166.488 236.913C165.072 238.311 163.765 239.836 162.675 241.488C162.512 241.743 162.839 242.015 163.075 242.033C165.199 242.178 167.305 241.942 169.32 241.27C169.484 241.216 169.302 241.016 169.193 241.034C167.396 241.452 165.526 241.597 163.674 241.452C164.836 239.945 166.052 238.511 167.45 237.204C167.487 237.167 167.468 237.131 167.468 237.113C167.577 237.095 167.541 236.968 167.468 236.913C167.341 236.677 166.942 236.459 166.724 236.677C166.198 236.514 165.707 236.296 165.235 236.005C166.452 235.207 167.632 234.408 168.903 233.681C170.264 232.901 171.662 232.211 173.097 231.594C173.405 231.466 173.024 231.013 172.697 231.031C172.352 230.74 172.007 230.468 171.644 230.196C171.445 230.05 170.991 229.869 171.154 229.578C171.245 229.415 171.717 229.251 171.88 229.161C172.933 228.58 174.041 228.071 175.166 227.654C177.363 226.855 179.669 226.437 182.011 226.419C182.447 226.419 182.156 225.82 181.83 225.82C181.811 225.82 181.793 225.82 181.793 225.82C181.521 225.348 181.267 224.894 181.14 224.368C182.392 224.44 183.627 224.531 184.862 224.822C186.151 225.148 187.385 225.62 188.547 226.256C190.925 227.545 192.923 229.433 194.321 231.739C194.557 232.12 195.337 232.084 195.029 231.575C193.522 229.088 191.361 227.055 188.819 225.675C186.405 224.368 183.336 223.405 180.577 223.75C180.432 223.75 180.377 223.896 180.413 224.005Z" fill="#333333" fill-opacity="0.7"/>
<path d="M169.139 243.467C169.302 242.832 170.047 242.051 169.411 241.452C169.321 241.361 169.175 241.416 169.266 241.543C169.647 242.051 168.812 242.668 168.631 243.086C168.485 243.431 168.449 243.83 168.703 244.139C169.012 244.52 169.502 244.484 169.938 244.466C170.501 244.448 171.063 244.375 171.608 244.266C173.823 243.794 175.857 242.741 177.527 241.216C177.817 240.944 177.146 240.399 176.837 240.689C175.348 242.051 173.533 243.031 171.572 243.522C171.1 243.631 170.628 243.721 170.156 243.794C169.902 243.83 169.647 243.885 169.393 243.885C169.085 243.885 169.066 243.758 169.139 243.467Z" fill="#333333" fill-opacity="0.7"/>
<path d="M195.301 232.683C195.011 233.3 194.847 233.99 194.593 234.625C194.321 235.261 194.03 235.896 193.685 236.495C193.032 237.675 192.233 238.783 191.343 239.8C189.655 241.724 187.621 243.177 185.37 244.375C185.461 243.558 185.533 242.723 185.624 241.906C185.624 241.851 185.552 241.779 185.479 241.76C185.497 241.506 185.243 241.307 185.007 241.343C184.644 241.379 184.39 241.742 184.117 241.96C183.809 242.196 183.5 242.414 183.173 242.632C182.556 243.031 181.884 243.358 181.194 243.631C179.996 244.103 178.725 244.357 177.436 244.429C177.763 243.576 177.962 242.596 177.726 241.724C177.708 241.633 177.545 241.561 177.509 241.67C177.309 242.142 177.254 242.65 177.091 243.14C176.928 243.649 176.746 244.139 176.51 244.611C176.401 244.847 176.764 245.101 176.964 245.119C178.562 245.174 180.177 244.938 181.666 244.357C182.392 244.066 183.082 243.739 183.736 243.322C184.063 243.122 184.371 242.886 184.68 242.65C184.862 242.505 185.116 242.341 185.279 242.16C185.079 243.05 184.898 243.939 184.698 244.829C184.662 245.028 184.916 245.319 185.134 245.228C187.748 244.248 190.054 242.487 191.906 240.417C192.85 239.364 193.685 238.202 194.375 236.967C195.029 235.805 195.791 234.407 195.991 233.064C196.082 232.683 195.501 232.265 195.301 232.683Z" fill="#333333" fill-opacity="0.7"/>
<path d="M161.727 198.992C161.836 197.994 162.017 197.014 162.29 196.051C162.417 195.597 162.562 195.125 162.707 194.69C162.852 194.254 163.07 193.836 163.161 193.401C163.197 193.219 162.961 193.255 162.889 193.364C162.38 194.145 162.162 195.216 161.926 196.106C161.69 197.068 161.509 198.048 161.418 199.047C161.218 201.044 161.327 203.059 161.763 205.02C161.781 205.129 161.945 205.056 161.926 204.966C161.563 202.987 161.509 200.971 161.727 198.992Z" fill="#333333" fill-opacity="0.7"/>
<path d="M165.213 192.475C164.722 191.694 163.96 191.077 162.998 191.004C162.09 190.95 161.218 191.404 160.601 192.057C159.185 193.582 158.913 196.124 159.021 198.121C159.149 200.518 159.966 202.842 161.436 204.748C161.509 204.839 161.654 204.694 161.581 204.621C160.492 203.023 159.748 201.172 159.475 199.247C159.203 197.341 159.33 195.217 160.129 193.437C160.547 192.493 161.309 191.622 162.362 191.422C163.343 191.222 164.232 191.767 164.813 192.529C166.066 194.182 165.975 196.596 165.43 198.485C164.741 200.899 163.179 202.86 161.618 204.785C161.4 205.039 161.781 205.202 161.981 204.984C163.56 203.151 165.013 201.063 165.703 198.702C166.302 196.723 166.375 194.309 165.213 192.475Z" fill="#333333" fill-opacity="0.7"/>
<path d="M161.672 195.652C161.636 195.307 161.636 194.944 161.691 194.581C161.691 194.526 161.618 194.544 161.6 194.599C161.527 194.962 161.491 195.325 161.509 195.688C161.527 196.051 161.563 196.433 161.727 196.759C161.763 196.85 161.927 196.759 161.908 196.669C161.836 196.324 161.727 195.997 161.672 195.652Z" fill="#333333" fill-opacity="0.7"/>
<path d="M161.563 200.028C161.527 199.864 161.4 199.737 161.327 199.592C161.236 199.447 161.164 199.301 161.091 199.138C160.964 198.829 160.891 198.484 160.855 198.158C160.855 198.103 160.764 198.14 160.764 198.176C160.764 198.539 160.8 198.884 160.909 199.229C160.964 199.392 161.018 199.574 161.091 199.719C161.164 199.864 161.254 200.064 161.4 200.137C161.472 200.173 161.581 200.082 161.563 200.028Z" fill="#333333" fill-opacity="0.7"/>
<path d="M161.545 202.352C161.473 202.298 161.418 202.243 161.346 202.17C161.218 202.043 161.11 201.916 161.019 201.771C160.819 201.481 160.71 201.136 160.656 200.791C160.656 200.736 160.565 200.772 160.583 200.827C160.619 201.19 160.71 201.553 160.892 201.898C160.982 202.062 161.073 202.225 161.182 202.37C161.237 202.443 161.291 202.515 161.364 202.588C161.436 202.679 161.509 202.751 161.636 202.715C161.691 202.697 161.727 202.642 161.745 202.588C161.727 202.443 161.636 202.406 161.545 202.352Z" fill="#333333" fill-opacity="0.7"/>
<path d="M163.324 195.017C163.161 195.616 162.925 196.197 162.616 196.741C162.471 196.995 162.307 197.25 162.144 197.486C161.962 197.74 161.745 197.976 161.563 198.23C161.527 198.285 161.599 198.321 161.636 198.285C162.108 197.885 162.471 197.304 162.761 196.759C163.052 196.215 163.251 195.634 163.397 195.035C163.397 194.98 163.324 194.98 163.324 195.017Z" fill="#333333" fill-opacity="0.7"/>
<path d="M162.816 197.776C162.653 198.284 162.453 198.811 162.235 199.301C162.126 199.537 161.999 199.791 161.872 200.027C161.745 200.263 161.6 200.481 161.473 200.735C161.436 200.826 161.545 200.862 161.6 200.79C161.963 200.39 162.199 199.846 162.417 199.356C162.653 198.847 162.816 198.321 162.943 197.776C162.961 197.685 162.834 197.722 162.816 197.776Z" fill="#333333" fill-opacity="0.7"/>
<path d="M228.727 302.992C228.836 301.994 229.017 301.014 229.29 300.051C229.417 299.597 229.562 299.125 229.707 298.69C229.852 298.254 230.07 297.836 230.161 297.401C230.197 297.219 229.961 297.255 229.889 297.364C229.38 298.145 229.162 299.216 228.926 300.106C228.69 301.068 228.509 302.048 228.418 303.047C228.218 305.044 228.327 307.059 228.763 309.02C228.781 309.129 228.945 309.056 228.926 308.966C228.563 306.987 228.509 304.971 228.727 302.992Z" fill="#333333" fill-opacity="0.7"/>
<path d="M232.213 296.475C231.722 295.694 230.96 295.077 229.998 295.004C229.09 294.95 228.218 295.404 227.601 296.057C226.185 297.582 225.913 300.124 226.021 302.121C226.149 304.518 226.966 306.842 228.436 308.748C228.509 308.839 228.654 308.694 228.581 308.621C227.492 307.023 226.748 305.172 226.475 303.247C226.203 301.341 226.33 299.217 227.129 297.437C227.547 296.493 228.309 295.622 229.362 295.422C230.343 295.222 231.232 295.767 231.813 296.529C233.066 298.182 232.975 300.596 232.43 302.485C231.741 304.899 230.179 306.86 228.618 308.785C228.4 309.039 228.781 309.202 228.981 308.984C230.56 307.151 232.013 305.063 232.703 302.702C233.302 300.723 233.375 298.309 232.213 296.475Z" fill="#333333" fill-opacity="0.7"/>
<path d="M228.672 299.652C228.636 299.307 228.636 298.944 228.691 298.581C228.691 298.526 228.618 298.544 228.6 298.599C228.527 298.962 228.491 299.325 228.509 299.688C228.527 300.051 228.563 300.433 228.727 300.759C228.763 300.85 228.927 300.759 228.908 300.669C228.836 300.324 228.727 299.997 228.672 299.652Z" fill="#333333" fill-opacity="0.7"/>
<path d="M228.563 304.028C228.527 303.864 228.4 303.737 228.327 303.592C228.236 303.447 228.164 303.301 228.091 303.138C227.964 302.829 227.891 302.484 227.855 302.158C227.855 302.103 227.764 302.14 227.764 302.176C227.764 302.539 227.8 302.884 227.909 303.229C227.964 303.392 228.018 303.574 228.091 303.719C228.164 303.864 228.254 304.064 228.4 304.137C228.472 304.173 228.581 304.082 228.563 304.028Z" fill="#333333" fill-opacity="0.7"/>
<path d="M228.545 306.352C228.473 306.298 228.418 306.243 228.346 306.17C228.219 306.043 228.11 305.916 228.019 305.771C227.819 305.481 227.71 305.136 227.656 304.791C227.656 304.736 227.565 304.772 227.583 304.827C227.619 305.19 227.71 305.553 227.892 305.898C227.983 306.062 228.073 306.225 228.182 306.37C228.237 306.443 228.291 306.515 228.364 306.588C228.436 306.679 228.509 306.751 228.636 306.715C228.691 306.697 228.727 306.642 228.745 306.588C228.727 306.443 228.636 306.406 228.545 306.352Z" fill="#333333" fill-opacity="0.7"/>
<path d="M230.324 299.017C230.161 299.616 229.925 300.197 229.616 300.741C229.471 300.995 229.307 301.25 229.144 301.486C228.962 301.74 228.745 301.976 228.563 302.23C228.527 302.285 228.599 302.321 228.636 302.285C229.108 301.885 229.471 301.304 229.761 300.759C230.052 300.215 230.251 299.634 230.397 299.035C230.397 298.98 230.324 298.98 230.324 299.017Z" fill="#333333" fill-opacity="0.7"/>
<path d="M229.816 301.776C229.653 302.284 229.453 302.811 229.235 303.301C229.126 303.537 228.999 303.791 228.872 304.027C228.745 304.263 228.6 304.481 228.473 304.735C228.436 304.826 228.545 304.862 228.6 304.79C228.963 304.39 229.199 303.846 229.417 303.356C229.653 302.847 229.816 302.321 229.943 301.776C229.961 301.685 229.834 301.722 229.816 301.776Z" fill="#333333" fill-opacity="0.7"/>
</g>
<defs>
<clipPath id="clip0_365_921">
<rect width="1920" height="940" fill="white"/>
</clipPath>
</defs>
</svg>
