<svg width="210" height="210" viewBox="0 0 210 210" fill="none" xmlns="http://www.w3.org/2000/svg">
<circle cx="105" cy="105" r="105" fill="#242627"/>
<path d="M90.611 58.106C88.1628 56.7897 85.3629 56.043 82.3886 56.043C72.7852 56.043 65 63.8281 65 73.4316C65 83.0351 72.7852 90.8203 82.3886 90.8203C82.9079 90.8203 83.4218 90.7975 83.9294 90.7529M87.8914 89.9316C86.6289 90.3524 85.302 90.6324 83.9294 90.7529M83.9294 90.7529L86.7908 95.8828M77.3261 98.5241C86.3955 95.6296 107.307 91.7201 125.97 96.1389M81.2881 106.008C100.129 98.26 121.935 102.339 129.932 105.568L133.674 98.5241C131.177 97.5469 128.596 96.7605 125.97 96.1389M129.492 90.38L125.97 96.1389" stroke="#F07900" stroke-width="2"/>
<path d="M77.3259 98.3047L81.2879 106.229" stroke="#F07900" stroke-width="2"/>
<path d="M90.3127 58.1551C93.1916 52.7103 98.9126 49 105.5 49C112.147 49 117.911 52.7769 120.764 58.3017" stroke="#F07900" stroke-width="2"/>
<path d="M73.5834 74.7537C72.9231 73.2129 74.1732 68.8557 75.7853 67.2701C78.1902 64.9045 80.1867 64.1884 83.7085 65.0688" stroke="#F07900" stroke-width="2"/>
<path d="M146 73.2115C146 82.6934 138.313 90.38 128.831 90.38C126.907 90.38 125.056 90.0633 123.329 89.4792M120.562 58.1622C123.015 56.8114 125.833 56.043 128.831 56.043C136.086 56.043 142.289 60.5423 144.804 66.9027" stroke="#F07900" stroke-width="2"/>
<path d="M125.96 107.77C126.112 108.775 126.191 109.804 126.191 110.851C126.191 122.156 117.026 131.321 105.72 131.321C94.4151 131.321 85.2502 122.156 85.2502 110.851C85.2502 109.804 85.3289 108.775 85.4807 107.77" stroke="#F07900" stroke-width="2"/>
<path d="M88.4336 159.153C90.5894 147.202 99.3914 142.002 104.644 140.54C102.686 153.078 93.7484 157.973 88.4336 159.153ZM113.144 154.006C109.843 151 107.158 146.617 106.853 140.427C112.165 141.535 121.143 146.401 122.444 159.097C119.728 158.366 116.173 156.764 113.144 154.006Z" stroke="#F07900" stroke-width="2"/>
<path d="M79.9673 129.119C86.7579 135.403 95.8427 139.244 105.825 139.244C115.806 139.244 124.891 135.403 131.682 129.119" stroke="#F07900" stroke-width="2"/>
</svg>
